# Blender v2.79 (sub 0) OBJ File: 'untitled.blend'
# www.blender.org
mtllib model.mtl
o Plane
v -1.500000 0.000000 -0.156732
v 1.500000 0.000000 -0.156732
v -1.500000 0.000000 -2.156732
v 1.500000 0.000000 -2.156732
vt 0.000100 0.000100
vt 0.999900 0.000100
vt 0.999900 0.999900
vt 0.000100 0.999900
vn 0.0000 1.0000 0.0000
usemtl Material.001
s off
f 1/1/1 2/2/1 4/3/1 3/4/1
o Plane.001_Plane.003
v -1.500000 0.000000 1.943268
v 1.500000 0.000000 1.943268
v -1.500000 0.000000 -0.056732
v 1.500000 0.000000 -0.056732
vt 0.000100 0.000100
vt 0.999900 0.000100
vt 0.999900 0.999900
vt 0.000100 0.999900
vn 0.0000 1.0000 0.0000
usemtl Material.006
s off
f 5/5/2 6/6/2 8/7/2 7/8/2
