# Blender v2.79 (sub 0) OBJ File: ''
# www.blender.org
mtllib ARGOS LOGOS.mtl
o Plane.001
v -1.003717 0.319078 -0.000000
v 2.658231 0.319078 -0.000000
v -1.003717 2.319078 0.000000
v 2.658231 2.319078 0.000000
vt 0.000097 0.000097
vt 1.003686 0.004003
vt 1.003686 0.999903
vt 0.000097 0.999903
vn 0.0000 -0.0000 1.0000
usemtl Material.001
s off
f 1/1/1 2/2/1 4/3/1 3/4/1
o Plane
v -1.000000 2.342342 -0.000000
v 2.671568 2.342342 -0.000000
v -1.000000 4.342342 0.000000
v 2.671568 4.342342 0.000000
vt 0.000081 0.000081
vt 1.001233 0.000081
vt 0.997327 0.992107
vt 0.000081 0.999919
vn 0.0000 -0.0000 1.0000
usemtl Material
s off
f 5/5/2 6/6/2 8/7/2 7/8/2
